<svg width="93" height="23" viewBox="0 0 93 23" fill="none" xmlns="http://www.w3.org/2000/svg">
<path d="M1.698 5.64H20.778V7.416H1.698V5.64ZM2.802 12.696H19.77V14.448H2.802V12.696ZM0.594 20.352H21.978V22.128H0.594V20.352ZM10.266 7.056H12.21V21.264H10.266V7.056ZM8.202 1.944L9.666 0.935999C11.226 2.04 13.17 3.672 14.106 4.824L12.546 5.952C11.682 4.824 9.786 3.12 8.202 1.944ZM43.438 1.008L44.446 2.328C41.182 3.072 36.022 3.552 31.798 3.72C31.726 3.336 31.534 2.736 31.366 2.376C35.518 2.16 40.606 1.656 43.438 1.008ZM31.102 7.104H45.478V8.616H31.102V7.104ZM37.318 2.4H38.974V13.104H37.318V2.4ZM37.342 14.256H38.902V21.36H37.342V14.256ZM32.902 4.296L34.366 3.84C34.87 4.704 35.494 5.856 35.758 6.576L34.27 7.128C33.982 6.384 33.406 5.184 32.902 4.296ZM42.166 3.384L43.75 3.864C43.03 5.28 42.19 6.864 41.518 7.896L40.198 7.44C40.846 6.336 41.71 4.584 42.166 3.384ZM36.358 7.92L37.774 8.472C36.334 10.92 33.622 13.2 31.126 14.352C30.886 13.968 30.358 13.344 29.998 13.032C32.422 12.072 35.014 10.032 36.358 7.92ZM40.006 7.92C41.35 9.864 43.918 11.808 46.174 12.744C45.814 13.056 45.286 13.656 45.022 14.088C42.694 12.96 40.054 10.704 38.614 8.496L40.006 7.92ZM32.446 13.632H44.206V22.776H42.526V15.024H34.078V22.896H32.446V13.632ZM33.502 17.064H43.03V18.384H33.502V17.064ZM33.502 20.472H42.982V21.84H33.502V20.472ZM23.398 13.488C25.222 12.864 28.006 11.856 30.67 10.872L30.958 12.504C28.486 13.488 25.846 14.472 23.782 15.216L23.398 13.488ZM23.734 5.688H31.03V7.368H23.734V5.688ZM26.758 0.863999H28.438V20.832C28.438 21.84 28.198 22.32 27.598 22.608C27.046 22.896 26.11 22.944 24.598 22.944C24.526 22.512 24.31 21.768 24.07 21.264C25.126 21.288 26.038 21.288 26.326 21.264C26.614 21.264 26.758 21.192 26.758 20.832V0.863999ZM48.746 3.552H67.85V5.424H48.746V3.552ZM47.474 19.296H69.05V21.096H47.474V19.296ZM57.17 4.488H59.186V20.04H57.17V4.488ZM74.022 2.544H92.19V4.416H74.022V2.544ZM73.206 2.544H75.102V9.72C75.102 13.608 74.766 19.176 72.342 22.872C72.006 22.536 71.166 22.008 70.71 21.816C72.99 18.312 73.206 13.344 73.206 9.696V2.544Z" fill="#292D34"/>
</svg>
