<svg width="68" height="35" viewBox="0 0 68 35" fill="none" xmlns="http://www.w3.org/2000/svg">
<rect y="10.3363" width="67.0381" height="24.2164" fill="black"/>
<path d="M36.172 32.7807H35.6157C34.7822 32.7807 33.7365 32.7807 33.1277 32.3473C32.6203 31.9861 31.9136 30.6495 31.0075 28.3377L20.2437 0.621956H17.4712V0H32.1491V0.621956H27.8545L37.9592 26.0856L47.1154 0.621956H41.0103V0H50.2519V0.621956H47.5338L36.172 32.7807Z" fill="url(#paint0_linear_698_48)"/>
<path d="M62.0452 30.9904H52.9099V30.7136H55.5801V14.7662H55.1124C54.4889 14.7662 53.6995 14.9893 53.0576 15.3568C52.4157 15.7243 51.7615 16.6942 51.358 17.8703L50.5052 20.351H50.2705V14.4524H64.7413V20.351H64.5066L63.6538 17.8703C63.5254 17.5211 63.4062 17.2179 63.2961 16.9607C62.7459 15.7846 61.2199 14.7662 59.8994 14.7662H59.4317V30.7136H62.0452V30.9904Z" fill="white"/>
<path d="M50.3998 25.9922C50.3998 27.1659 49.9692 28.1617 49.1079 28.9797C47.8619 30.1356 46.0752 30.7136 43.748 30.7136C41.7507 30.7136 39.5549 30.2601 38.144 29.3532C38.144 29.6555 38.144 30.5002 38.144 30.5002H37.8486V24.8452H38.144C38.2173 25.7877 38.7525 26.6235 39.0823 27.3526C39.8703 29.0775 41.5308 30.2353 43.4732 30.2353C43.9863 30.2353 44.4535 30.1642 44.875 30.0219C46.0478 29.5952 46.6341 28.4463 46.6341 27.1659C46.6341 26.7925 46.5517 26.4279 46.3868 26.0723C46.0019 25.3254 45.0216 24.5518 43.4457 23.7516C41.6865 22.8802 40.697 22.3734 40.4771 22.2312C38.7363 21.182 37.8659 19.9194 37.8659 18.4434C37.8659 17.4476 38.2232 16.5851 38.9379 15.856C40.0557 14.7357 41.7232 14.1755 43.9404 14.1755C45.6263 14.1755 47.8453 14.6633 49.3662 15.3568V14.4709H49.6852V19.1103H49.3662C49.2185 18.1624 48.652 17.3231 48.1939 16.6296C47.4425 15.527 46.0203 14.6804 44.5177 14.6804C44.1329 14.6804 43.7664 14.7338 43.4182 14.8405C42.3737 15.1784 41.8515 16.1672 41.8515 17.2164C41.8515 17.6254 41.9431 18.0166 42.1263 18.3901C42.5111 19.1547 43.4732 19.9283 45.0124 20.7107C46.6983 21.5821 47.6603 22.08 47.8985 22.2045C49.5661 23.2537 50.3998 24.5163 50.3998 25.9922Z" fill="white"/>
<path d="M11.269 30.9904H3V30.7136H5.33275V14.7662H3.11996V14.4524H11.4179V14.7662H9.20512V22.1492H16.2895V14.7662H14.0179V14.4524H22.3159V14.7662H20.1031V30.7136H22.1959V30.9904H13.9269V30.7136H16.2895V22.7399H9.20512V30.7136H11.269V30.9904Z" fill="white"/>
<path d="M29.4033 14.1755C31.4737 14.1755 33.2784 14.7179 34.8174 15.8027C36.9611 17.332 38.0329 19.5637 38.0329 22.4979C38.0329 24.9164 37.1809 26.908 35.477 28.4729C33.8097 29.9667 31.7577 30.7136 29.3209 30.7136C27.1772 30.7136 25.3084 30.1178 23.7144 28.9264C21.6441 27.3615 20.6089 25.1831 20.6089 22.3912C20.6089 19.955 21.4792 17.9633 23.2197 16.4162C24.9053 14.9224 26.9665 14.1755 29.4033 14.1755ZM29.4033 30.2353C30.7606 30.2353 31.2468 29.7622 31.8148 29.4065C33.2806 28.4996 34.0134 26.1523 34.0134 22.3645C34.0134 20.7641 33.7138 19.2076 33.3059 18.3367C32.5325 16.6858 31.3912 14.6538 29.3209 14.6538C28.6979 14.6538 27.8185 14.7716 27.3644 15.0615C25.6077 16.1828 24.8541 18.3367 24.6283 22.4979C24.6283 24.6318 25.1527 26.2856 25.6107 27.4593C26.2703 29.1131 28.0461 30.2353 29.4033 30.2353Z" fill="white"/>
<defs>
<linearGradient id="paint0_linear_698_48" x1="90.9166" y1="18.7167" x2="-70.0379" y2="18.7167" gradientUnits="userSpaceOnUse">
<stop stop-color="#9251EB"/>
<stop offset="0.57" stop-color="#64537B"/>
</linearGradient>
</defs>
</svg>
